# xmcd
#
# Track frame offsets: 
#        150
#        20595
#        35956
#        54392
#        70315
#        90069
#        109958
#        134726
#        150787
#        166194
#        187593
#
# Disc length: 2844 seconds
#
# Revision: 0
# Processed by: cddbd v1.5.2PL0 Copyright (c) Steve Scherf et al.
# Submitted via: ExactAudioCopy v0.99pb5
#
DISCID=840b1a0b
DTITLE=Margit Bakken - On the other side
DYEAR=2009
DGENRE=Blues
TTITLE0=I'll be there
TTITLE1=A real woman
TTITLE2=Treat her like a lady
TTITLE3=Strong will
TTITLE4=Don't leave me alone
TTITLE5=Slow down
TTITLE6=Nothing in rambling
TTITLE7=You're wasting my time
TTITLE8=Today and always
TTITLE9=Dark room
TTITLE10=Out of the rain
EXTD=
EXTT0=
EXTT1=
EXTT2=
EXTT3=
EXTT4=
EXTT5=
EXTT6=
EXTT7=
EXTT8=
EXTT9=
EXTT10=
PLAYORDER=
